<svg version="1.0" xmlns="http://www.w3.org/2000/svg"
 width="786.000000pt" height="564pt" viewBox="0 0 600 679.000000"
 preserveAspectRatio="xMidYMid meet">

<g transform="translate(0.000000,679.000000) scale(0.100000,-0.100000)"
fill="#000000" stroke="none">
<path d="M2455 6529 c-324 -20 -616 -143 -869 -365 -260 -228 -436 -568 -476
-920 -16 -144 -8 -3707 8 -3784 34 -153 48 -203 83 -295 76 -198 190 -367 355
-525 206 -197 435 -316 719 -375 113 -23 306 -31 400 -16 340 55 603 292 697
627 22 78 22 90 26 827 l3 749 77 35 c246 112 350 169 572 313 74 47 174 108
222 134 l87 47 3 -1018 c4 -1011 4 -1019 25 -1093 87 -301 289 -509 584 -602
66 -21 93 -23 254 -23 198 0 280 13 440 66 202 68 377 174 532 322 264 253
419 570 453 927 8 79 10 665 8 1895 -4 1996 2 1845 -78 2086 -74 223 -184 404
-345 564 -257 256 -576 402 -925 424 -192 12 -339 -13 -475 -81 -208 -105
-359 -281 -436 -513 -23 -69 -24 -80 -29 -560 l-5 -490 -102 -12 c-238 -27
-495 -97 -772 -209 -46 -19 -86 -34 -87 -34 -2 0 -5 271 -6 603 -4 589 -4 604
-26 675 -50 165 -119 278 -238 393 -184 177 -390 246 -679 228z m240 -314 c88
-23 173 -73 241 -140 61 -60 120 -156 111 -179 -3 -7 -173 -90 -378 -186 -410
-190 -477 -225 -560 -297 -223 -191 -331 -445 -316 -741 16 -324 188 -606 424
-695 50 -19 78 -22 193 -21 145 0 180 7 358 68 110 38 163 61 492 211 564 257
838 338 1200 352 178 7 321 -6 489 -43 503 -112 893 -391 1076 -769 124 -256
160 -510 120 -849 -74 -629 -375 -1150 -825 -1429 -178 -110 -428 -204 -614
-232 l-46 -7 0 225 0 225 28 7 c54 13 279 106 365 150 441 227 731 593 792
1002 112 745 -513 1344 -1318 1263 -293 -29 -564 -127 -917 -330 -861 -496
-1497 -444 -1951 159 -133 177 -212 364 -243 573 -22 147 -22 609 -1 734 65
368 295 676 630 844 97 49 229 92 330 109 86 15 256 12 320 -4z m2818 -24
c392 -113 699 -420 800 -801 14 -52 31 -135 36 -185 13 -107 15 -1424 3 -1409
-5 5 -21 37 -36 72 -67 153 -173 311 -288 428 l-69 71 17 89 c26 128 26 406 0
529 -95 453 -426 817 -866 949 -95 28 -243 56 -301 56 -27 0 -39 4 -39 14 0
23 134 142 193 171 99 48 139 55 297 51 125 -4 160 -8 253 -35z m-559 -532
c177 -45 321 -121 442 -232 174 -161 268 -343 295 -574 11 -91 9 -256 -3 -268
-3 -4 -75 28 -159 69 -239 117 -511 199 -734 221 -33 3 -75 8 -92 11 l-33 5 0
401 0 401 101 -7 c56 -3 138 -16 183 -27z m-1854 -222 l0 -133 -77 -38 c-369
-181 -577 -466 -576 -786 0 -91 6 -131 29 -212 5 -16 -2 -18 -47 -18 -71 0
-122 17 -169 58 -88 74 -143 192 -161 345 -15 118 3 225 58 335 39 80 123 178
194 228 36 25 721 352 742 353 4 1 7 -59 7 -132z m0 -708 l0 -240 -102 -49
c-149 -70 -227 -100 -233 -90 -13 21 -21 146 -13 198 20 133 124 275 274 376
38 25 70 46 71 46 2 0 3 -108 3 -241z m1847 -933 c112 -31 201 -70 282 -126
235 -159 363 -431 336 -714 -7 -77 -18 -91 -28 -36 -11 51 -66 176 -106 237
-81 125 -197 214 -335 259 -71 23 -97 27 -211 26 -111 0 -147 -4 -245 -30
-239 -62 -443 -159 -752 -358 -386 -250 -636 -361 -965 -431 -116 -24 -148
-27 -343 -27 -245 -1 -315 9 -516 75 -207 67 -434 198 -582 334 l-72 67 0 354
c0 195 3 354 8 354 4 0 18 -17 32 -37 14 -21 70 -84 125 -141 232 -242 478
-375 795 -427 144 -25 397 -16 560 19 272 57 620 200 861 352 61 38 272 141
355 173 146 56 240 79 429 105 80 11 282 -4 372 -28z m101 -687 c145 -71 219
-249 229 -554 l5 -161 -58 -53 c-32 -29 -98 -80 -148 -113 -88 -60 -325 -181
-378 -194 l-28 -6 0 541 c0 463 2 542 14 547 8 3 48 12 88 20 106 20 199 11
276 -27z m-3538 -505 c68 -46 78 -57 99 -110 61 -152 169 -336 269 -460 l49
-60 6 -135 c29 -586 284 -1005 743 -1221 l89 -41 -33 -14 c-60 -24 -166 -33
-268 -23 -278 29 -506 134 -702 324 -182 176 -296 388 -337 624 -21 117 -22
1188 -2 1175 7 -4 46 -31 87 -59z m4840 -1048 c-51 -453 -383 -844 -823 -970
-179 -52 -371 -58 -492 -16 -132 45 -247 146 -310 272 -41 83 -44 106 -12 112
12 3 60 13 107 22 128 24 298 79 423 134 499 224 859 630 1068 1205 l44 120 3
-390 c2 -242 -1 -428 -8 -489z m-4110 759 c130 -26 424 -31 584 -11 71 9 156
23 190 31 34 8 67 15 74 15 9 0 12 -70 12 -319 l0 -320 -37 5 c-315 43 -590
165 -798 353 -97 88 -245 265 -245 293 0 4 30 -2 68 -12 37 -10 105 -26 152
-35z m215 -725 c66 -32 165 -73 219 -90 107 -35 311 -80 363 -80 65 0 63 7 63
-209 -1 -209 -7 -253 -47 -343 l-25 -56 -81 28 c-360 121 -584 361 -677 724
-11 44 -20 92 -20 108 l0 29 43 -26 c23 -15 96 -53 162 -85z"/>
</g>
</svg>
