<?xml version="1.0" encoding="UTF-8"?>
<svg inkscape:version="1.1.2 (b8e25be833, 2022-02-05)" sodipodi:docname="drawing.svg" version="1.1" viewBox="0 0 1920 1080" xmlns="http://www.w3.org/2000/svg" xmlns:inkscape="http://www.inkscape.org/namespaces/inkscape" xmlns:sodipodi="http://sodipodi.sourceforge.net/DTD/sodipodi-0.dtd">
 <sodipodi:namedview bordercolor="#666666" borderopacity="1.0" inkscape:current-layer="text3529" inkscape:cx="6.3382121" inkscape:cy="430.99842" inkscape:document-units="px" inkscape:pagecheckerboard="0" inkscape:pageopacity="0.0" inkscape:pageshadow="2" inkscape:window-height="1009" inkscape:window-maximized="1" inkscape:window-width="1920" inkscape:window-x="-8" inkscape:window-y="-8" inkscape:zoom="0.394433" pagecolor="#ffffff" showgrid="false"/>
 <defs>
  <rect x="193.61" y="258.15" width="1522" height="509.13"/>
 </defs>
 <g fill="#fff" inkscape:groupmode="layer" inkscape:label="Layer 1">
  <g transform="matrix(11.579 0 0 10.071 -2078.1 -2468.2)" style="shape-inside:url(#rect3531);white-space:pre" aria-label="Halcyon">
   <path d="m265.03 290.27q0.25143 0.0114 0.41143 0.18286 0.16 0.16 0.16 0.41142-0.0114 0.24-0.18285 0.4-0.16 0.14858-0.41143 0.16-3.1086-0.0686-6.4229-0.0914-1.4971 3.6228-2.8686 6.96 0.97143 8.6057-8.72 21.166-0.19429 0.22857-0.45714 0.22857-0.14858 0-0.28572-0.08-0.19428-0.11428-0.26286-0.32-0.0686-0.19428 0.0114-0.4 0.0114 0 0.0114-0.0229 0.21714-0.53714 2.5257-6.1714 2.32-5.6343 5.9771-14.526-0.32-2.3886-1.5657-4.4114-0.81142-1.3257-1.9428-2.4343-5.1314 0.0114-10.286 0.0457-0.44571 0-0.88 0.0114-5.1657 0.0343-10.309 0.0571-3.1771 7.2686-5.8971 13.566-2.72 6.2971-5.8971 13.68l-3.2686 7.5771q-0.19428 0.35429-0.52571 0.35429-0.11429 0-0.22857-0.0457-0.22857-0.10286-0.32-0.32-0.08-0.21714 0.0114-0.44571l3.2686-7.5772q5.8286-13.554 11.589-26.789-9.3257 0.0343-17.36-0.21714-0.10286 0-1.6229-0.10286-1.52-0.10285-3.7714-0.32-2.2514-0.22857-4.5486-0.58285-2.2971-0.35429-3.9657-0.85715-1.6571-0.50285-1.9886-1.1657-0.17143-0.34286-0.0229-0.83429 0.16-0.49143 0.98286-1.04 1.5657-0.98285 5.3828-1.8743 3.8172-0.90286 9.1657-1.4629 5.3486-0.57143 11.531-0.54857 4.2628-0.0114 9.8971 0.59428 3.5314-8.0457 8.7086-19.783 0.68572-0.28572 1.12 0.32-5.12 11.623-8.6286 19.623 3.3829 0.44572 6.7429 1.3143 3.36 0.85714 6.3314 2.24 2.9828 1.3829 5.2343 3.4171 3.2343 0 6.3543 0.0114 7.1886-17.463 14.16-34.206 0.67428-0.30857 1.1314 0.30857-6.9029 16.571-14.046 33.909 3.0857 0.0229 5.9771 0.0914zm-36.251 0.0114q1.2571-2.9029 2.6971-6.1829-5.2686-0.54857-10.434-0.51429-4.9371 0.0229-9.3828 0.45715-4.4457 0.42285-7.76 1.0514-3.0743 0.58285-4.7772 1.1314-1.6914 0.54858-2.3771 0.96-0.67429 0.41143-0.67429 0.58286 0.51429 0.49143 3.2114 0.99429 2.6972 0.49143 6 0.85714 3.3143 0.35429 5.6686 0.44571 8.2286 0.25143 17.829 0.21715zm11.051-0.0686q0.53715 0 1.0743 0 4.4-0.0343 8.8-0.0457-3.12-2.4229-7.5314-3.8514-4.4114-1.44-9.4971-2.0686-1.4057 3.1886-2.64 6.0229 4.8914-0.0114 9.7943-0.0571zm9.0972 24.594q5.2-7.8171 5.6571-13.771-3.5886 8.7314-5.6571 13.771zm6.3771-18.571q0.77714-1.8857 1.5886-3.8628 0.21714-0.51429 0.43429-1.0514-2.3429-0.0114-4.7429-0.0114 1.9543 2.24 2.72 4.9257z"/>
   <path d="m276.87 291.62q0.13714-0.16 0.33143-0.17143 0.19428-0.0229 0.35428 0.11429 0.16 0.13714 0.17143 0.33143 0.0114 0.19428-0.11428 0.35428-1.1772 1.3486-2.5714 2.1829-1.3829 0.83428-2.6743 1.0286-1.28 0.18286-2.1257-0.41143-0.24-0.16-0.45715-0.46857-0.21714-0.32-0.29714-0.81143-0.54857 0.61714-1.1657 1.1429-0.50286 0.48-1.2229 0.70857-0.20571 0.0457-0.4 0.0457-0.69714 0-1.1657-0.53714-0.57143-0.75428-0.19429-2.0914 0.42286-1.36 1.3714-2.4571 0.94857-1.1086 1.8743-1.5543 0.97143-0.45714 1.7143-0.25142 0.77714 0.24 1.0857 0.97142 0.16 0.0914 0.21715 0.26286 0.0571 0.16-0.0114 0.34286-0.37714 0.92571-0.89143 1.76-0.59429 1.6 0.11429 2.16 0.88 0.56 2.6514-0.13714 1.7829-0.69715 3.4057-2.5143zm-7.0514 0.0686q0.24-0.65143 0.70857-1.4514-0.0457-0.19428-0.18286-0.33143-0.13714-0.14857-0.30857-0.19428-0.10285-0.0229-0.22857-0.0229-0.33143 0-0.81143 0.21714-0.77714 0.37715-1.5771 1.3257t-1.1429 2.08q-0.24 0.85714 0.0229 1.2114 0.11429 0.13714 0.26286 0.17143 0.16 0.0229 0.29714-0.0229 0.43429-0.13714 0.83429-0.50286 1.2343-1.0514 2.1257-2.48z"/>
   <path d="m285.9 292.41q-0.57143 0.72-1.6571 1.6229-1.0743 0.89143-2.3543 1.5657-1.28 0.66286-2.4571 0.72-0.0343 0-0.0686 0-1.0743 0-1.7257-0.73143-1.5428-1.7943 0.26286-6.9028 1.0514-2.9372 2.8229-6.1029 1.7828-3.1657 3.6457-5.4514 1.8743-2.2971 3.1771-2.6171 0.62858-0.0914 0.92572 0.49143 0.42286 0.94857-0.52572 3.6-0.94857 2.6514-3.3943 6.1486-2.4343 3.4857-6.5029 6.9829-0.42286 2.3314 0.32 3.2228 0.35429 0.4 1.04 0.38857 0.92572-0.0457 2.0343-0.62857 1.12-0.58285 2.1143-1.3828 1.0057-0.81143 1.5772-1.52 0.13714-0.16 0.33142-0.18286 0.19429-0.0229 0.35429 0.10286 0.16 0.12571 0.18286 0.32 0.0229 0.19428-0.10286 0.35428zm-7.0857-3.4057q-0.20572 0.57143-0.35429 1.0971 3.4857-3.2343 5.5657-6.3429 2.0914-3.1086 2.9486-5.36 0.85714-2.2514 0.65142-2.9028-0.99428 0.33142-2.6514 2.4-1.6572 2.0571-3.3486 5.04-1.6914 2.9828-2.8114 6.0686z"/>
   <path d="m293.75 292.55q0.18286-0.10285 0.36572-0.0571 0.19428 0.0457 0.30857 0.21714 0.10285 0.17143 0.0571 0.36572-0.0457 0.18286-0.21714 0.29714-2.0457 1.2686-3.6572 1.8057-1.6 0.53714-2.7543 0.52571-0.90286 0-1.5314-0.25143-0.61714-0.25143-0.98286-0.65143-0.60571-0.70857-0.51428-1.6457 0.08-0.94857 0.84571-1.9086 0.81143-0.98286 1.76-1.5429t1.7714-0.75429q0.83429-0.20571 1.28-0.0914 0.78857 0.19428 0.86857 0.77714 0.0571 0.26286-0.13714 0.65143-0.19429 0.37714-0.90286 0.96-0.69714 0.58285-2.1486 1.4514-0.18286 0.10285-0.37714 0.0571-0.18286-0.0457-0.28572-0.22857-0.10285-0.17143-0.0571-0.35429 0.0457-0.19428 0.22857-0.30857 1.5086-0.91429 2.0686-1.3943 0.56-0.49142 0.60572-0.64-0.0343-0.0114-0.08-0.0229-0.26286-0.0572-0.91429 0.11428-0.65143 0.17143-1.4514 0.64-0.78857 0.46857-1.4743 1.2914-1.0629 1.3943-0.35429 2.2971 0.67429 0.78858 2.6514 0.51429 1.9886-0.27429 5.0286-2.1143z"/>
   <path d="m302.86 291.51q0.18286-0.10285 0.36572-0.0457 0.19428 0.0457 0.29714 0.22857 0.10286 0.18286 0.0457 0.37714-0.0457 0.18286-0.22857 0.28572-3.0514 1.7257-5.5314 3.3714-2.48 5.68-4.8914 9.1314-2.4114 3.4514-4.4 4.9943-2 1.5429-3.2229 1.5086-0.0686 0-0.14857 0-1.1086-0.11428-1.3714-1.2-0.29714-1.1771 0.89143-3.3943 1.1771-2.2172 4.1828-5.2114 2.9943-2.9829 8.1829-6.48 0.45714-1.0629 0.90286-2.2057l0.0571-0.16q0.08-0.19428 0.14857-0.38857-1.6914 1.5886-3.6114 2.8914-0.29714 0.20572-0.69714 0.33143t-0.77714 0.0457q-0.42286-0.11428-0.62857-0.50285-0.16-0.34286-0.0914-0.65143 0.0571-0.32 0.13714-0.49143 0.73143-1.92 1.9657-3.5657 0.14857-0.18286 0.4-0.26286 0.25142-0.0914 0.49142 0.0229 0.37715 0.21714 0.28572 0.65142-0.0571 0.17143-0.20572 0.27429-0.14857 0.0914-0.32 0.0686-1.0628 1.4743-1.7143 3.1543-0.0343 0.10285-0.0571 0.17143-0.0229 0.0686-0.0229 0.11428-0.0114 0.0343 0 0.0571 0 0.0114 0 0.0114 0.0571 0.0229 0.25143-0.0229 0.19428-0.0571 0.43428-0.20572 2.4229-1.6571 4.48-3.76 0.20572-0.20571 0.48-0.13714 0.27429 0.0914 0.34286 0.37714 0.10286 0.58286-0.0343 1.1429-0.13714 0.54857-0.35428 1.04l-0.0571 0.14857q-0.18286 0.45714-0.36572 0.91429 2.0343-1.2914 4.3886-2.6286zm-17.634 18.88q0.82285 0.0914 2.5257-1.1771 1.7029-1.2686 3.92-4.2857 2.2171-3.0057 4.6171-8.16-4.5943 3.2457-7.1886 5.92-2.5943 2.6857-3.5886 4.56-1.0057 1.8743-0.78857 2.6971 0.08 0.42286 0.50286 0.44571z"/>
   <path d="m313.35 291.18q0.18286-0.11429 0.37715-0.08 0.19428 0.0343 0.32 0.19428 0.11428 0.18286 0.08 0.37714-0.0343 0.19429-0.19429 0.32-2.1257 1.4629-3.8743 1.8629-1.7371 0.4-3.0171 0.11429-0.32 0.66285-0.90286 1.2114-0.69714 0.65142-1.4971 0.78857-0.18286 0.0343-0.35428 0.0343-0.78858 0-1.3829-0.52571-0.96-0.96-0.69714-2.4114 0.16-0.74286 0.70857-1.5429 0.53714-0.8 1.3828-1.0857 0.4-0.33143 1.1086-0.28572 0.45714 0.0229 0.93714 0.26286 0.49143 0.24 0.77714 0.74286 0.29714 0.58286 0.29714 1.28-0.0114 0.29714-0.0686 0.58286 1.1543 0.20571 2.6743-0.18286 1.5314-0.4 3.3257-1.6571zm-7.8857 3.28q0.37714-0.35429 0.60571-0.76572-1.0057-0.42286-1.4971-0.94857-0.45714-0.46857-0.60571-0.96-0.59429 0.65143-0.8 1.4971-0.0914 0.41143 0.0114 0.81143 0.11429 0.4 0.38858 0.66286 0.36571 0.30857 0.91428 0.24 0.32-0.0571 0.57143-0.21714 0.25143-0.16 0.41143-0.32zm0.93714-1.6914q0.0229-0.18286 0.0229-0.35429 0.0114-0.20571-0.0457-0.41143-0.0457-0.21714-0.12571-0.37714-0.20571-0.34286-0.74286-0.46857-0.24-0.0457-0.38857-0.0229-0.14857 0.0229-0.18286 0.0457-0.0114 0.0114-0.0114 0.0229-0.08 0.12572 0.0114 0.36572 0.0914 0.22857 0.33143 0.48 0.41143 0.42285 1.1314 0.72z"/>
   <path d="m322.01 291.47q0.13715-0.14857 0.33143-0.16 0.19429-0.0229 0.35429 0.11428 0.14857 0.13715 0.16 0.33143 0.0229 0.19429-0.11429 0.35429-1.5543 1.7829-2.5486 2.56-0.98286 0.77714-1.5543 0.91428-0.56 0.12572-0.85714-0.0343-0.46857-0.22857-0.61714-0.64-0.13714-0.42286-0.11429-0.70857 0.08-0.88 0.36572-1.76 0.29714-0.88 0.61714-1.68 0.0114-0.0229 0.0114-0.0343 0.0114-0.0114 0.0229-0.0343-2.24 1.9657-5.4514 4.9828-0.13715 0.12572-0.32 0.13715-0.13715 0-0.26286-0.0686-0.29714-0.20571-0.21714-0.54857 0.96-3.2914 2.9828-6.16 0.11429-0.16 0.30858-0.19428 0.19428-0.0343 0.36571 0.08 0.16 0.12571 0.19429 0.32 0.0343 0.18285-0.08 0.35428-1.3029 1.8514-2.1943 4.0229 1.3257-1.2343 2.2514-2.08 0.93714-0.84571 1.5429-1.3829 0.61714-0.53714 0.98285-0.82285 0.37715-0.28572 0.57143-0.4 0.20572-0.11429 0.29714-0.11429 0.10286-0.0114 0.18286 0.0114 0.18286 0.0686 0.27429 0.24 0.0914 0.16 0.0457 0.35428-0.21714 0.76572-0.59428 1.6914-0.30858 0.75429-0.58286 1.5772-0.27429 0.81142-0.34286 1.5771 0 0.0571 0.0114 0.14857 0.0229 0.08 0.0457 0.14857 0.0343 0.0686 0.08 0.0914 0 0 0.0571 0.0114 0.0686 0 0.19428-0.0343 0.12572-0.0343 0.32-0.13714 0.20572-0.10286 0.50286-0.30857 0.29714-0.21714 0.69714-0.57143t0.91429-0.88q0.52571-0.52571 1.1657-1.2686z"/>
  </g>
  <rect x="177.42" y="602.08" width="289.02" height="7.8211" stroke-width=".8782"/>
  <rect x="548.34" y="603.34" width="263.67" height="6.8764" stroke-width=".82345"/>
  <rect x="894.01" y="601.68" width="296.63" height="7.6059"/>
  <rect x="1342.3" y="600.18" width="255.84" height="6.8599" stroke-width=".89614"/>
  <rect x="252.32" y="680.46" width="164.79" height="7.523" stroke-width=".77037"/>
  <rect x="329.43" y="754.46" width="60.847" height="7.6059"/>
  <rect x="515.97" y="683.3" width="248.46" height="6.6286" stroke-width=".72312"/>
  <rect x="877.21" y="686.96" width="689.6" height="7.6059"/>
  <rect x="476.63" y="764.48" width="1067.4" height="7.6059"/>
 </g>
</svg>
